<svg width="173" height="189" viewBox="0 0 173 189" fill="none" xmlns="http://www.w3.org/2000/svg">
<path d="M17.8816 0.358747C19.1848 0.348014 19.1848 0.348014 20.5144 0.337064C21.465 0.334376 22.4156 0.331687 23.3951 0.328916C24.9006 0.319059 24.9006 0.319059 26.4365 0.309004C29.7666 0.289256 33.0967 0.277601 36.4268 0.267637C37.5662 0.263561 38.7057 0.259486 39.8796 0.255287C45.9181 0.234413 51.9566 0.220121 57.9951 0.210752C64.2099 0.199724 70.4243 0.16537 76.6389 0.125581C81.4348 0.099325 86.2305 0.0910521 91.0264 0.0874707C93.3155 0.0826227 95.6047 0.0710604 97.8937 0.0524327C120.867 -0.122795 120.867 -0.122796 131.622 4.50592C132.29 4.78096 132.958 5.05601 133.647 5.33938C141.81 8.96732 148.391 14.1972 154.622 20.5059C155.258 21.1195 155.893 21.7331 156.548 22.3653C167.528 33.7594 172.221 49.6339 172.122 65.1309C172.117 66.1727 172.112 67.2145 172.107 68.2879C171.665 88.1038 163.69 103.856 149.622 117.506C146.471 120.184 143.328 122.653 139.622 124.506C141.28 128.855 144.534 131.597 147.81 134.756C152.643 139.5 157.277 144.306 161.622 149.506C162.115 150.071 162.607 150.635 163.114 151.217C167.03 155.752 168.048 159.167 167.962 165.037C166.927 172.555 161.411 178.93 155.622 183.506C149.688 187.101 143.684 189.613 136.622 188.506C130.288 185.62 125.461 180.761 120.649 175.861C119.923 175.133 119.196 174.404 118.447 173.653C116.92 172.12 115.397 170.582 113.877 169.042C111.57 166.704 109.252 164.376 106.933 162.051C105.442 160.551 103.952 159.05 102.462 157.549C101.438 156.519 101.438 156.519 100.394 155.468C96.547 151.565 92.8907 147.552 89.3073 143.407C86.7127 140.48 83.9391 137.756 81.1377 135.029C79.9434 133.853 78.7494 132.675 77.5557 131.498C75.7069 129.68 73.8558 127.865 71.9995 126.055C70.1846 124.282 68.3794 122.5 66.5752 120.717C66.0221 120.182 65.4689 119.648 64.899 119.097C59.9924 114.223 57.4989 110.192 57.3291 103.107C57.3489 101.115 57.3845 99.1228 57.4346 97.1309C57.4549 95.5976 57.4549 95.5976 57.4756 94.0333C57.5108 91.5236 57.56 89.015 57.6221 86.5059C58.2809 86.5045 58.9396 86.5031 59.6183 86.5016C66.4973 86.4819 73.3754 86.4275 80.2539 86.3533C82.8183 86.3302 85.3828 86.3158 87.9473 86.3104C91.6416 86.301 95.3344 86.26 99.0284 86.213C100.168 86.2169 101.308 86.2208 102.483 86.2249C109.411 86.0989 114.335 85.1883 119.622 80.5059C123.706 75.8098 124.177 71.2888 123.958 65.1622C123.488 61.4487 122.348 58.819 120.622 55.5059C120.292 54.5159 118.84 54.02 118.5 53C116.205 51.8645 117.327 51.3705 114.622 50.5059C113.869 50.1632 113.117 49.8204 112.341 49.4673C109.206 48.3588 106.686 48.2277 103.363 48.1871C101.476 48.157 101.476 48.157 99.5504 48.1263C98.2373 48.1149 96.9242 48.1036 95.5713 48.0919C94.3575 48.0742 93.1438 48.0566 91.8932 48.0384C87.3655 47.9754 82.8375 47.9292 78.3096 47.8809C68.1827 47.7572 58.0559 47.6334 47.6221 47.5059C47.6221 76.5459 47.6221 105.586 47.6221 135.506C32.1121 135.506 16.6021 135.506 0.622101 135.506C0.5091 119.737 0.41705 103.969 0.363039 88.1999C0.337291 80.8776 0.302207 73.5556 0.244904 66.2335C0.194964 59.8492 0.162786 53.4651 0.151659 47.0806C0.145158 43.7021 0.12995 40.3241 0.0934505 36.9457C0.0571072 33.1679 0.0521581 29.3913 0.0544739 25.6133C0.0364975 24.5013 0.0185211 23.3893 0 22.2436C0.0454771 15.3788 1.11776 10.7967 5.6221 5.50592C9.56009 1.84921 12.5335 0.389032 17.8816 0.358747Z" fill="#29227F"/>
<rect y="143" width="47" height="46" rx="23" fill="#2B2580"/>
</svg>
